<svg width="301" height="135" viewBox="0 0 301 135" fill="none" xmlns="http://www.w3.org/2000/svg">
<path d="M8.57672 100.75L58 1.12508L107.423 100.75H8.57672Z" fill="#EEEEEE" stroke="#D9D9D9"/>
<path d="M64.6919 101L95.5 38.1362L126.308 101H64.6919Z" fill="#EEEEEE" stroke="#D9D9D9"/>
<path d="M87.2195 54.5L95.5 38.1089L103.78 54.5H87.2195Z" fill="white"/>
<path d="M87.2195 54.5L95.5 38.1089L103.78 54.5H87.2195Z" fill="white"/>
<path d="M87.2195 54.5L95.5 38.1089L103.78 54.5H87.2195Z" fill="white"/>
<path d="M87.2195 54.5L95.5 38.1089L103.78 54.5H87.2195Z" stroke="#D9D9D9"/>
<path d="M45.805 26.5L58 1.15326L70.195 26.5H45.805Z" fill="white"/>
<path d="M45.805 26.5L58 1.15326L70.195 26.5H45.805Z" fill="white"/>
<path d="M45.805 26.5L58 1.15326L70.195 26.5H45.805Z" fill="white"/>
<path d="M45.805 26.5L58 1.15326L70.195 26.5H45.805Z" stroke="#D9D9D9"/>
<path d="M27.2756 70.8182H34.1023L41.3125 88.4091H41.6193L48.8295 70.8182H55.6562V97H50.2869V79.9588H50.0696L43.294 96.8722H39.6378L32.8622 79.8949H32.6449V97H27.2756V70.8182ZM68.9869 97.3835C67.0011 97.3835 65.2837 96.9616 63.8349 96.1179C62.3945 95.2656 61.2823 94.081 60.4982 92.5639C59.7141 91.0384 59.3221 89.2699 59.3221 87.2585C59.3221 85.2301 59.7141 83.4574 60.4982 81.9403C61.2823 80.4148 62.3945 79.2301 63.8349 78.3864C65.2837 77.5341 67.0011 77.108 68.9869 77.108C70.9727 77.108 72.6857 77.5341 74.1261 78.3864C75.5749 79.2301 76.6914 80.4148 77.4755 81.9403C78.2596 83.4574 78.6516 85.2301 78.6516 87.2585C78.6516 89.2699 78.2596 91.0384 77.4755 92.5639C76.6914 94.081 75.5749 95.2656 74.1261 96.1179C72.6857 96.9616 70.9727 97.3835 68.9869 97.3835ZM69.0124 93.1648C69.9158 93.1648 70.6701 92.9091 71.2752 92.3977C71.8803 91.8778 72.3363 91.1705 72.6431 90.2756C72.9585 89.3807 73.1161 88.3622 73.1161 87.2202C73.1161 86.0781 72.9585 85.0597 72.6431 84.1648C72.3363 83.2699 71.8803 82.5625 71.2752 82.0426C70.6701 81.5227 69.9158 81.2628 69.0124 81.2628C68.1005 81.2628 67.3335 81.5227 66.7113 82.0426C66.0977 82.5625 65.6332 83.2699 65.3178 84.1648C65.011 85.0597 64.8576 86.0781 64.8576 87.2202C64.8576 88.3622 65.011 89.3807 65.3178 90.2756C65.6332 91.1705 66.0977 91.8778 66.7113 92.3977C67.3335 92.9091 68.1005 93.1648 69.0124 93.1648ZM94.7852 88.6392V77.3636H100.231V97H95.0025V93.4332H94.7979C94.3548 94.5838 93.6175 95.5085 92.5863 96.2074C91.5636 96.9062 90.315 97.2557 88.8406 97.2557C87.5281 97.2557 86.3732 96.9574 85.3761 96.3608C84.3789 95.7642 83.5991 94.9162 83.0366 93.8168C82.4826 92.7173 82.2013 91.4006 82.1928 89.8665V77.3636H87.6388V88.8949C87.6474 90.054 87.9585 90.9702 88.5721 91.6435C89.1857 92.3168 90.0082 92.6534 91.0394 92.6534C91.6957 92.6534 92.3093 92.5043 92.8803 92.206C93.4513 91.8991 93.9116 91.4474 94.261 90.8509C94.619 90.2543 94.7937 89.517 94.7852 88.6392ZM110.033 85.6477V97H104.587V77.3636H109.778V80.8281H110.008C110.442 79.6861 111.171 78.7827 112.194 78.1179C113.217 77.4446 114.457 77.108 115.914 77.108C117.278 77.108 118.467 77.4062 119.481 78.0028C120.495 78.5994 121.283 79.4517 121.846 80.5597C122.408 81.6591 122.69 82.9716 122.69 84.4972V97H117.244V85.4688C117.252 84.267 116.945 83.3295 116.323 82.6562C115.701 81.9744 114.844 81.6335 113.754 81.6335C113.021 81.6335 112.373 81.7912 111.81 82.1065C111.256 82.4219 110.822 82.8821 110.506 83.4872C110.2 84.0838 110.042 84.804 110.033 85.6477ZM137.426 77.3636V81.4545H125.601V77.3636H137.426ZM128.286 72.6591H133.732V90.9659C133.732 91.4687 133.809 91.8608 133.962 92.142C134.115 92.4148 134.328 92.6065 134.601 92.7173C134.882 92.8281 135.206 92.8835 135.573 92.8835C135.828 92.8835 136.084 92.8622 136.34 92.8196C136.596 92.7685 136.792 92.7301 136.928 92.7045L137.784 96.7571C137.512 96.8423 137.128 96.9403 136.634 97.0511C136.14 97.1705 135.539 97.2429 134.831 97.2685C133.519 97.3196 132.368 97.1449 131.38 96.7443C130.4 96.3437 129.637 95.7216 129.091 94.8778C128.546 94.0341 128.277 92.9687 128.286 91.6818V72.6591ZM146.574 97.3707C145.321 97.3707 144.204 97.1534 143.224 96.7188C142.244 96.2756 141.468 95.6236 140.897 94.7628C140.335 93.8935 140.054 92.8111 140.054 91.5156C140.054 90.4247 140.254 89.5085 140.654 88.767C141.055 88.0256 141.6 87.429 142.291 86.9773C142.981 86.5256 143.765 86.1847 144.643 85.9545C145.529 85.7244 146.458 85.5625 147.43 85.4688C148.572 85.3494 149.493 85.2386 150.191 85.1364C150.89 85.0256 151.397 84.8636 151.713 84.6506C152.028 84.4375 152.186 84.1222 152.186 83.7045V83.6278C152.186 82.8182 151.93 82.1918 151.419 81.7486C150.916 81.3054 150.2 81.0838 149.271 81.0838C148.291 81.0838 147.511 81.3011 146.931 81.7358C146.352 82.1619 145.968 82.6989 145.781 83.3466L140.744 82.9375C141 81.7443 141.502 80.7131 142.252 79.8438C143.002 78.9659 143.97 78.2926 145.154 77.8239C146.348 77.3466 147.728 77.108 149.297 77.108C150.387 77.108 151.431 77.2358 152.429 77.4915C153.434 77.7472 154.325 78.1435 155.1 78.6804C155.885 79.2173 156.502 79.9077 156.954 80.7514C157.406 81.5866 157.632 82.5881 157.632 83.7557V97H152.467V94.277H152.314C151.998 94.8906 151.576 95.4318 151.048 95.9006C150.52 96.3608 149.885 96.723 149.143 96.9872C148.402 97.2429 147.545 97.3707 146.574 97.3707ZM148.133 93.6122C148.934 93.6122 149.642 93.4545 150.255 93.1392C150.869 92.8153 151.35 92.3807 151.7 91.8352C152.049 91.2898 152.224 90.6719 152.224 89.9815V87.8977C152.054 88.0085 151.819 88.1108 151.521 88.2045C151.231 88.2898 150.903 88.3707 150.537 88.4474C150.17 88.5156 149.804 88.5795 149.437 88.6392C149.071 88.6903 148.738 88.7372 148.44 88.7798C147.801 88.8736 147.243 89.0227 146.765 89.2273C146.288 89.4318 145.917 89.7088 145.653 90.0582C145.389 90.3991 145.257 90.8253 145.257 91.3366C145.257 92.0781 145.525 92.6449 146.062 93.0369C146.608 93.4205 147.298 93.6122 148.133 93.6122ZM161.857 97V77.3636H167.303V97H161.857ZM164.593 74.8324C163.783 74.8324 163.088 74.5639 162.509 74.027C161.938 73.4815 161.652 72.8295 161.652 72.071C161.652 71.321 161.938 70.6776 162.509 70.1406C163.088 69.5952 163.783 69.3224 164.593 69.3224C165.402 69.3224 166.093 69.5952 166.664 70.1406C167.243 70.6776 167.533 71.321 167.533 72.071C167.533 72.8295 167.243 73.4815 166.664 74.027C166.093 74.5639 165.402 74.8324 164.593 74.8324ZM177.112 85.6477V97H171.665V77.3636H176.856V80.8281H177.086C177.521 79.6861 178.249 78.7827 179.272 78.1179C180.295 77.4446 181.535 77.108 182.992 77.108C184.356 77.108 185.545 77.4062 186.559 78.0028C187.573 78.5994 188.362 79.4517 188.924 80.5597C189.487 81.6591 189.768 82.9716 189.768 84.4972V97H184.322V85.4688C184.33 84.267 184.023 83.3295 183.401 82.6562C182.779 81.9744 181.923 81.6335 180.832 81.6335C180.099 81.6335 179.451 81.7912 178.888 82.1065C178.335 82.4219 177.9 82.8821 177.585 83.4872C177.278 84.0838 177.12 84.804 177.112 85.6477ZM201.497 75.3821V70.8182H223V75.3821H214.984V97H209.513V75.3821H201.497ZM232.463 97.3835C230.478 97.3835 228.76 96.9616 227.311 96.1179C225.871 95.2656 224.759 94.081 223.975 92.5639C223.191 91.0384 222.799 89.2699 222.799 87.2585C222.799 85.2301 223.191 83.4574 223.975 81.9403C224.759 80.4148 225.871 79.2301 227.311 78.3864C228.76 77.5341 230.478 77.108 232.463 77.108C234.449 77.108 236.162 77.5341 237.603 78.3864C239.051 79.2301 240.168 80.4148 240.952 81.9403C241.736 83.4574 242.128 85.2301 242.128 87.2585C242.128 89.2699 241.736 91.0384 240.952 92.5639C240.168 94.081 239.051 95.2656 237.603 96.1179C236.162 96.9616 234.449 97.3835 232.463 97.3835ZM232.489 93.1648C233.392 93.1648 234.147 92.9091 234.752 92.3977C235.357 91.8778 235.813 91.1705 236.12 90.2756C236.435 89.3807 236.593 88.3622 236.593 87.2202C236.593 86.0781 236.435 85.0597 236.12 84.1648C235.813 83.2699 235.357 82.5625 234.752 82.0426C234.147 81.5227 233.392 81.2628 232.489 81.2628C231.577 81.2628 230.81 81.5227 230.188 82.0426C229.574 82.5625 229.11 83.2699 228.794 84.1648C228.488 85.0597 228.334 86.0781 228.334 87.2202C228.334 88.3622 228.488 89.3807 228.794 90.2756C229.11 91.1705 229.574 91.8778 230.188 92.3977C230.81 92.9091 231.577 93.1648 232.489 93.1648ZM263.385 97H254.104V70.8182H263.462C266.095 70.8182 268.362 71.3423 270.263 72.3906C272.163 73.4304 273.625 74.9261 274.648 76.8778C275.679 78.8295 276.195 81.1648 276.195 83.8835C276.195 86.6108 275.679 88.9545 274.648 90.9148C273.625 92.875 272.155 94.3793 270.237 95.4276C268.328 96.4759 266.044 97 263.385 97ZM259.639 92.2571H263.155C264.791 92.2571 266.168 91.9673 267.284 91.3878C268.409 90.7997 269.253 89.892 269.815 88.6648C270.386 87.429 270.672 85.8352 270.672 83.8835C270.672 81.9489 270.386 80.3679 269.815 79.1406C269.253 77.9134 268.413 77.0099 267.297 76.4304C266.18 75.8509 264.804 75.5611 263.168 75.5611H259.639V92.2571ZM289.065 97.3835C287.079 97.3835 285.362 96.9616 283.913 96.1179C282.473 95.2656 281.36 94.081 280.576 92.5639C279.792 91.0384 279.4 89.2699 279.4 87.2585C279.4 85.2301 279.792 83.4574 280.576 81.9403C281.36 80.4148 282.473 79.2301 283.913 78.3864C285.362 77.5341 287.079 77.108 289.065 77.108C291.051 77.108 292.764 77.5341 294.204 78.3864C295.653 79.2301 296.77 80.4148 297.554 81.9403C298.338 83.4574 298.73 85.2301 298.73 87.2585C298.73 89.2699 298.338 91.0384 297.554 92.5639C296.77 94.081 295.653 95.2656 294.204 96.1179C292.764 96.9616 291.051 97.3835 289.065 97.3835ZM289.091 93.1648C289.994 93.1648 290.748 92.9091 291.353 92.3977C291.958 91.8778 292.414 91.1705 292.721 90.2756C293.037 89.3807 293.194 88.3622 293.194 87.2202C293.194 86.0781 293.037 85.0597 292.721 84.1648C292.414 83.2699 291.958 82.5625 291.353 82.0426C290.748 81.5227 289.994 81.2628 289.091 81.2628C288.179 81.2628 287.412 81.5227 286.789 82.0426C286.176 82.5625 285.711 83.2699 285.396 84.1648C285.089 85.0597 284.936 86.0781 284.936 87.2202C284.936 88.3622 285.089 89.3807 285.396 90.2756C285.711 91.1705 286.176 91.8778 286.789 92.3977C287.412 92.9091 288.179 93.1648 289.091 93.1648Z" fill="#686868"/>
</svg>
